# xmcd
#
# Track frame offsets:
#	150
#	7080
#	28277
#	44717
#	73397
#	77502
#	91100
#	121892
#	125670
#	205102
#	230202
#	261150
#	265047
#	299590
#	316702
#
# Disc length: 4361 seconds
#
# Revision: 1
# Processed by: cddbd v1.5.1PL0 Copyright (c) Steve Scherf et al.
# Submitted via: CDex 1.50Beta5
#
DISCID=e011070f
DTITLE=皆口裕子 - 皆口裕子のDear My Friends〜しゃべってもらっちゃいました〜
DYEAR=1998
DGENRE=
TTITLE0=皆口裕子/Openning Talk
TTITLE1=TOMOZA/でも、まだ
TTITLE2=皆口裕子/Friends Side Story Part1
TTITLE3=皆口裕子/Guests Part1
TTITLE4=皆口裕子/CM-1
TTITLE5=皆口裕子/Friends Side Story Part2
TTITLE6=皆口裕子/Guests Part2
TTITLE7=皆口裕子/CMー2
TTITLE8=皆口裕子/MInaguchi’s Friends Party
TTITLE9=TOMOZA/JUST FRIENDS
TTITLE10=皆口裕子/Guests Part3
TTITLE11=皆口裕子/CMー3
TTITLE12=皆口裕子/Guests Part4
TTITLE13=皆口裕子/Friends Side Story Part3
TTITLE14=皆口裕子/Closing Talk
EXTD=
EXTT0=
EXTT1=
EXTT2=
EXTT3=
EXTT4=
EXTT5=
EXTT6=
EXTT7=
EXTT8=
EXTT9=
EXTT10=
EXTT11=
EXTT12=
EXTT13=
EXTT14=
PLAYORDER=
